# xmcd CD database file
#
# Track frame offsets:
#	150
#	20081
#	38049
#	56506
#	65859
#	88070
#	108354
#	130931
#	148331
#	170965
#	185640
#	197764
#	218106
#	234789
#	256005
#	273222
#	289381
#	312519
#
# Disc length: 4440 seconds
#
# Revision: 0
# Processed by: cddbd v1.5.2PL0 Copyright (c) Steve Scherf et al.
# Submitted via: CDex 1.70beta3
#
DISCID=1b115612
DTITLE=Various Artist - One's own salon OBAR Millenium Album
DYEAR=2000
DGENRE=Jazz
TTITLE0=BRENDA RUSSELL-Walkin' In New York
TTITLE1=GENAI-Kiss Of Life
TTITLE2=SORAYA-I'll Be There
TTITLE3=LISA EKDAHI-Sun Rose
TTITLE4=ALEJANDRO SANZ-Tiene Que Ser Pecado
TTITLE5=BOZ SCAGGS feat. DAVID SANBORN-Lowdown
TTITLE6=AL JARREAU-Mas Que Nada
TTITLE7=THE RIPPINGTONS-Rhythm Of Your Life
TTITLE8=GEORGE BENSON-Poquito Spanish, Poquito Funk
TTITLE9=LAURA FYGI-What A Difference A Day Makes
TTITLE10=HENRI SALVADOR-Jarin D'Hiver
TTITLE11=DJAVAB feat. STEVIE WONDER-Samurai
TTITLE12=BETTE MIDLER-Just My Imagination (Running Away With Me)
TTITLE13=BRAZILIAN LOVE AFAIR-Georgy Porgy
TTITLE14=FAIRY FRUTE-Change The World
TTITLE15=FOURPLAY feat. CHAKA KHAN AND NATHAN EAST-Between The Sheets
TTITLE16=DAVID SANBORN-This Masquerade
TTITLE17=DAVE KOZ  feat. ZELMA DAVIS-Don't Look Any Further
EXTD=YEAR: 2000
EXTT0=
EXTT1=
EXTT2=
EXTT3=
EXTT4=
EXTT5=
EXTT6=
EXTT7=
EXTT8=
EXTT9=
EXTT10=
EXTT11=
EXTT12=
EXTT13=
EXTT14=
EXTT15=
EXTT16=
EXTT17=
PLAYORDER=
